<?xml version="1.0" encoding="UTF-8"?>
<svg id="Layer_1" data-name="Layer 1" xmlns="http://www.w3.org/2000/svg" viewBox="0 0 837.3 881.17">
  <defs>
    <style>
      .cls-1 {
        fill: #231f20;
      }
    </style>
  </defs>
  <polygon class="cls-1" points="386.98 566.75 524.46 542.12 448.76 341.99 386.98 566.75"/>
  <path class="cls-1" d="m833.98,701.56L573.22,120.36c-1.36-3.03-3.08-5.66-5.07-7.87-.29-.35-.58-.7-.88-1.04-.29-.35-.58-.7-.88-1.04-.29-.35-.58-.7-.88-1.04-.29-.35-.58-.7-.88-1.04-.29-.35-.58-.7-.88-1.03-.29-.35-.58-.7-.88-1.04-.29-.35-.58-.7-.88-1.04-.29-.35-.58-.7-.88-1.04-.29-.35-.58-.7-.88-1.03-.29-.35-.58-.7-.88-1.04-.29-.35-.58-.7-.88-1.04-.29-.35-.58-.7-.88-1.03-.29-.35-.58-.7-.88-1.04-.29-.35-.58-.7-.88-1.03-.29-.35-.58-.7-.88-1.04-.29-.35-.58-.7-.88-1.03-.29-.35-.58-.7-.88-1.04-.29-.35-.58-.7-.88-1.03-.29-.35-.58-.7-.88-1.04-.29-.35-.58-.7-.88-1.04-.29-.35-.58-.7-.88-1.03-.29-.35-.58-.7-.88-1.04-.29-.35-.58-.7-.88-1.03-.29-.35-.58-.7-.88-1.04-.29-.35-.58-.7-.88-1.03-.29-.35-.58-.7-.88-1.04-.29-.35-.58-.7-.88-1.03-.29-.35-.58-.7-.88-1.04-.29-.35-.58-.7-.88-1.03-.29-.35-.58-.7-.88-1.03-.29-.35-.58-.7-.88-1.04-.29-.35-.58-.7-.88-1.04-.29-.35-.58-.7-.88-1.04-.29-.35-.58-.7-.88-1.03-.29-.35-.58-.7-.88-1.04-.29-.35-.58-.7-.88-1.04-.29-.35-.58-.7-.88-1.04-.29-.35-.58-.7-.88-1.03-.29-.35-.58-.7-.88-1.04-.29-.35-.58-.7-.88-1.04-.29-.35-.58-.7-.88-1.03-.29-.35-.58-.7-.88-1.04-.29-.35-.58-.7-.88-1.03-.29-.35-.58-.7-.88-1.04-.29-.35-.58-.7-.88-1.04-.29-.35-.58-.7-.88-1.04-.29-.35-.58-.7-.88-1.03-.29-.35-.58-.7-.88-1.04-.29-.35-.58-.7-.88-1.04-.29-.35-.58-.7-.88-1.03-.29-.35-.58-.7-.88-1.04-.29-.35-.58-.7-.88-1.03-.29-.35-.58-.7-.88-1.04-.29-.35-.58-.7-.88-1.03-.29-.35-.58-.7-.88-1.04-.29-.35-.58-.7-.88-1.03-.29-.35-.58-.7-.88-1.04-.29-.35-.58-.7-.88-1.04-.29-.35-.58-.7-.88-1.03-.29-.35-.58-.7-.88-1.04-.29-.35-.58-.7-.88-1.04-.29-.35-.58-.7-.88-1.04-.29-.35-.58-.7-.88-1.03-.29-.35-.58-.7-.88-1.04-.29-.35-.58-.7-.88-1.03-.29-.35-.58-.7-.88-1.04-.29-.35-.58-.7-.88-1.03-.29-.35-.58-.7-.88-1.03-.29-.35-.58-.7-.88-1.04-.29-.35-.58-.7-.88-1.04-.29-.35-.58-.7-.88-1.04-.29-.35-.58-.7-.88-1.03-.29-.35-.58-.7-.88-1.04-.29-.35-.58-.7-.88-1.04-.29-.35-.58-.7-.88-1.04-.29-.35-.58-.7-.88-1.03-.29-.35-.58-.7-.88-1.04-.29-.35-.58-.7-.88-1.04-.29-.35-.58-.7-.88-1.03-.29-.35-.58-.7-.88-1.04-.29-.35-.58-.7-.88-1.03-.29-.35-.58-.7-.88-1.04-.29-.35-.58-.7-.88-1.03-.29-.35-.58-.7-.88-1.04-.29-.35-.58-.7-.88-1.03-.29-.35-.58-.7-.88-1.04-.29-.35-.58-.7-.88-1.04-.29-.35-.58-.7-.88-1.03-.29-.35-.58-.7-.88-1.04-.29-.35-.58-.7-.88-1.03-.29-.35-.58-.7-.88-1.04-.29-.35-.58-.7-.88-1.03-.29-.35-.58-.7-.88-1.04-.29-.35-.58-.7-.88-1.03-.29-.35-.58-.7-.88-1.04-.29-.35-.58-.7-.88-1.03-.29-.35-.58-.7-.88-1.03-.29-.35-.58-.7-.88-1.04-.29-.35-.58-.7-.88-1.04-.29-.35-.58-.7-.88-1.04-5.54-6.83-13.51-10.11-21.91-8.6l-211.54,37.9c-10.85,1.94-20.48,11.49-24.79,24.56L2.32,730.14c-3.86,11.71-2.86,24.49,2.64,33.86,1.05,1.78,2.23,3.39,3.53,4.82.29.35.58.7.88,1.03.29.35.58.7.88,1.04.29.35.58.7.88,1.04.29.35.58.7.88,1.04.29.35.58.7.88,1.03.29.35.58.7.88,1.03.29.35.58.7.88,1.04.29.35.58.7.88,1.04.29.35.58.7.88,1.04.29.35.58.7.88,1.03.29.35.58.7.88,1.04.29.35.58.7.88,1.03.29.35.58.7.88,1.04.29.35.58.7.88,1.03.29.35.58.7.88,1.03.29.35.58.7.88,1.04.29.35.58.7.88,1.04.29.35.58.7.88,1.04.29.35.58.7.88,1.03.29.35.58.7.88,1.04.29.35.58.7.88,1.04.29.35.58.7.88,1.04.29.35.58.7.88,1.04.29.35.58.7.88,1.03.29.35.58.7.88,1.04.29.35.58.7.88,1.03.29.35.58.7.88,1.04.29.35.58.7.88,1.03.29.35.58.7.88,1.04.29.35.58.7.88,1.03.29.35.58.7.88,1.04.29.35.58.7.88,1.04.29.35.58.7.88,1.04.29.35.58.7.88,1.04.29.35.58.7.88,1.03.29.35.58.7.88,1.04.29.35.58.7.88,1.03.29.35.58.7.88,1.04.29.35.58.7.88,1.03.29.35.58.7.88,1.04.29.35.58.7.88,1.04.29.35.58.7.88,1.04.29.35.58.7.88,1.04.29.35.58.7.88,1.03.29.35.58.7.88,1.04.29.35.58.7.88,1.04.29.35.58.7.88,1.04.29.35.58.7.88,1.03.29.35.58.7.88,1.04.29.35.58.7.88,1.04.29.35.58.7.88,1.03.29.35.58.7.88,1.04.29.35.58.7.88,1.03.29.35.58.7.88,1.04.29.35.58.7.88,1.03.29.35.58.7.88,1.04.29.35.58.7.88,1.03.29.35.58.7.88,1.04.29.35.58.7.88,1.03.29.35.58.7.88,1.04.29.35.58.7.88,1.04.29.35.58.7.88,1.03.29.35.58.7.88,1.04.29.35.58.7.88,1.03.29.35.58.7.88,1.04.29.35.58.7.88,1.03.29.35.58.7.88,1.04.29.35.58.7.88,1.03.29.35.58.7.88,1.04.29.35.58.7.88,1.04.29.35.58.7.88,1.04.29.35.58.7.88,1.04.29.35.58.7.88,1.03.29.35.58.7.88,1.04.29.35.58.7.88,1.04.29.35.58.7.88,1.04.29.35.58.7.88,1.03.29.35.58.7.88,1.04.29.35.58.7.88,1.04.29.35.58.7.88,1.03.29.35.58.7.88,1.04.29.35.58.7.88,1.03.29.35.58.7.88,1.04.29.35.58.7.88,1.03.29.35.58.7.88,1.04.29.35.58.7.88,1.03.29.35.58.7.88,1.04.29.35.58.7.88,1.04.29.35.58.7.88,1.03.29.35.58.7.88,1.04.29.35.58.7.88,1.03.29.35.58.7.88,1.04.29.35.58.7.88,1.03.29.35.58.7.88,1.04.29.35.58.7.88,1.03.29.35.58.7.88,1.04.29.35.58.7.88,1.03.29.35.58.7.88,1.04.29.35.58.7.88,1.04.29.35.58.7.88,1.04,5.57,6.79,13.51,9.96,21.8,8.47l201.95-36.18c11.35-2.03,21.32-12.38,25.31-26.26l23.26-80.97,154.54-27.69c.22.28.45.53.68.8.28.36.58.69.88,1.03.28.36.58.69.88,1.04.28.36.58.69.88,1.03.28.36.58.69.88,1.04.28.36.58.69.88,1.03.28.36.58.69.88,1.04.28.36.58.69.88,1.03.28.36.58.69.88,1.04.28.36.58.69.88,1.04.28.36.58.69.88,1.03.28.36.58.69.88,1.04.28.36.58.69.88,1.03.28.36.58.69.88,1.04.28.36.58.69.88,1.03.28.36.58.69.88,1.04.28.36.58.69.88,1.03.28.36.58.69.88,1.04.28.36.58.69.88,1.04.28.36.58.69.88,1.03.28.36.58.69.88,1.04.28.36.58.69.88,1.03.28.36.58.69.88,1.04.28.36.58.69.88,1.03.28.36.58.69.88,1.04.28.36.58.69.88,1.03.28.36.58.69.88,1.04.28.36.58.69.88,1.04.28.36.58.69.88,1.04.28.36.58.69.88,1.04.28.36.58.69.88,1.03.28.36.58.69.88,1.04.28.36.58.69.88,1.04.28.36.58.69.88,1.04.28.36.58.69.88,1.03.28.36.58.69.88,1.04.28.36.58.69.88,1.04.28.36.58.69.88,1.03.28.36.58.69.88,1.04.28.36.58.69.88,1.03.28.36.58.69.88,1.04.28.36.58.69.88,1.03.28.36.58.69.88,1.04.28.36.58.69.88,1.03.28.36.58.69.88,1.04.28.36.58.69.88,1.03.28.36.58.69.88,1.04.28.36.58.69.88,1.04.28.36.58.69.88,1.03.28.36.58.69.88,1.04.28.36.58.69.88,1.03.28.36.58.69.88,1.04.28.36.58.69.88,1.03.28.36.58.69.88,1.04.28.36.58.69.88,1.03.28.36.58.69.88,1.04.28.36.58.69.88,1.04.28.36.58.69.88,1.04.28.36.58.69.88,1.04.28.36.58.69.88,1.03.28.36.58.69.88,1.04.28.36.58.69.88,1.03.28.36.58.69.88,1.04.28.36.58.69.88,1.03.28.36.58.69.88,1.04.28.36.58.69.88,1.04.28.36.58.69.88,1.04.28.36.58.69.88,1.04.28.36.58.69.88,1.03.28.36.58.69.88,1.04.28.36.58.69.88,1.03.28.36.58.69.88,1.04,5.54,7.07,13.64,10.5,22.22,8.97l201.95-36.18c9.71-1.74,18.54-9.6,23.37-20.82,4.83-11.22,4.99-24.21.41-34.41Zm-226.89,56.08l-35.71-92.13-222.73,39.91-29.83,103.87-201.95,36.18L336.74,178.15l211.54-37.9,260.75,581.2-201.95,36.18Z"/>
</svg>